<svg width="512px" height="341.3px" enable-background="new 0 0 512 341.3" version="1.1" viewBox="0 0 512 341.3" xmlns="http://www.w3.org/2000/svg">
 <style type="text/css">.st0{fill-rule:evenodd;clip-rule:evenodd;fill:#FFFFFF;}
	.st1{fill-rule:evenodd;clip-rule:evenodd;fill:#005700;}
	.st2{fill-rule:evenodd;clip-rule:evenodd;fill:#FC0000;}</style>
 <g transform="matrix(.91026 0 0 .91026 22.973 10.111)" stroke-width="35.155">
  <rect x="-25.238" y="35.746" width="562.48" height="281.24" fill="#002395"/>
  <path d="m123.82 35.746h281.24v281.24z" fill="#fecb00"/>
  <g fill="#fff">
   <path d="m92.646 89.352 15.704-48.333 15.704 48.333-41.114-29.871h50.82z"/>
   <path d="m127.8 124.51 15.704-48.333 15.704 48.333-41.114-29.871h50.82z"/>
   <path d="m162.96 159.66 15.704-48.333 15.704 48.333-41.114-29.871h50.82z"/>
   <path d="m198.11 194.82 15.704-48.333 15.704 48.333-41.114-29.871h50.82z"/>
   <path d="m233.26 229.97 15.704-48.333 15.704 48.333-41.114-29.871h50.82z"/>
   <path d="m268.42 265.13 15.704-48.333 15.704 48.333-41.114-29.871h50.82z"/>
   <path d="m303.57 300.28 15.704-48.333 15.704 48.333-41.114-29.871h50.82z"/>
   <path d="m354.43 287.1-5.998 18.461h-19.412l15.703 11.41-4e-3 0.01h19.42l-4e-3 -0.01 15.705-11.41h-19.412z"/>
   <path d="m63.486 35.746-5.9941 18.451 15.703-11.41 15.705 11.41-5.9941-18.451z"/>
  </g>
 </g>
</svg>
